<svg width="62" height="29" viewBox="0 0 62 29" fill="none" xmlns="http://www.w3.org/2000/svg">
<path d="M22 4V23C22 24.0609 21.5786 25.0783 20.8284 25.8284C20.0783 26.5786 19.0609 27 18 27H4C2.93913 27 1.92172 26.5786 1.17157 25.8284C0.421427 25.0783 0 24.0609 0 23V4C0 3.46957 0.210714 2.96086 0.585786 2.58579C0.960859 2.21071 1.46957 2 2 2H4V1C4 0.734784 4.10536 0.48043 4.29289 0.292893C4.48043 0.105357 4.73478 0 5 0C5.26522 0 5.51957 0.105357 5.70711 0.292893C5.89464 0.48043 6 0.734784 6 1V2H10V1C10 0.734784 10.1054 0.48043 10.2929 0.292893C10.4804 0.105357 10.7348 0 11 0C11.2652 0 11.5196 0.105357 11.7071 0.292893C11.8946 0.48043 12 0.734784 12 1V2H16V1C16 0.734784 16.1054 0.48043 16.2929 0.292893C16.4804 0.105357 16.7348 0 17 0C17.2652 0 17.5196 0.105357 17.7071 0.292893C17.8946 0.48043 18 0.734784 18 1V2H20C20.5304 2 21.0391 2.21071 21.4142 2.58579C21.7893 2.96086 22 3.46957 22 4ZM20 4H18V5C18 5.26522 17.8946 5.51957 17.7071 5.70711C17.5196 5.89464 17.2652 6 17 6C16.7348 6 16.4804 5.89464 16.2929 5.70711C16.1054 5.51957 16 5.26522 16 5V4H12V5C12 5.26522 11.8946 5.51957 11.7071 5.70711C11.5196 5.89464 11.2652 6 11 6C10.7348 6 10.4804 5.89464 10.2929 5.70711C10.1054 5.51957 10 5.26522 10 5V4H6V5C6 5.26522 5.89464 5.51957 5.70711 5.70711C5.51957 5.89464 5.26522 6 5 6C4.73478 6 4.48043 5.89464 4.29289 5.70711C4.10536 5.51957 4 5.26522 4 5V4H2V23C2 23.5304 2.21071 24.0391 2.58579 24.4142C2.96086 24.7893 3.46957 25 4 25H18C18.5304 25 19.0391 24.7893 19.4142 24.4142C19.7893 24.0391 20 23.5304 20 23V4Z" fill="#334155"/>
<path d="M23.7422 14.1294C23.7422 12.5522 24.1473 11.3153 24.9575 10.4185C25.7739 9.52165 26.9862 9.07324 28.5942 9.07324C30.2023 9.07324 31.4115 9.52165 32.2217 10.4185C33.0381 11.3153 33.4463 12.5522 33.4463 14.1294C33.4463 15.7065 33.0381 16.9435 32.2217 17.8403C31.4115 18.7371 30.2023 19.1855 28.5942 19.1855C26.9862 19.1855 25.7739 18.7371 24.9575 17.8403C24.1473 16.9435 23.7422 15.7065 23.7422 14.1294ZM26.4883 14.1294C26.4883 15.3045 26.6676 16.1395 27.0264 16.6343C27.3913 17.1229 27.9139 17.3672 28.5942 17.3672C29.2746 17.3672 29.7941 17.1229 30.1528 16.6343C30.5177 16.1395 30.7002 15.3045 30.7002 14.1294C30.7002 12.9543 30.5177 12.1224 30.1528 11.6338C29.7941 11.139 29.2746 10.8916 28.5942 10.8916C27.9139 10.8916 27.3913 11.139 27.0264 11.6338C26.6676 12.1224 26.4883 12.9543 26.4883 14.1294ZM35.1255 11.1143C34.7606 11.1143 34.5781 10.9596 34.5781 10.6504V9.72266C34.5781 9.41341 34.7606 9.25879 35.1255 9.25879H35.7563V8.93408C35.7563 8.65576 35.8213 8.40218 35.9512 8.17334L36.6655 6.9209C36.8016 6.68587 36.9624 6.56836 37.1479 6.56836H37.7974C38.1685 6.56836 38.354 6.75391 38.354 7.125V9.25879H39.8569C40.2218 9.25879 40.4043 9.41341 40.4043 9.72266V10.6504C40.4043 10.9596 40.2218 11.1143 39.8569 11.1143H38.354V15.7158C38.354 16.3467 38.3973 16.8013 38.4839 17.0796C38.5767 17.3517 38.8117 17.4878 39.189 17.4878C39.3807 17.4878 39.5972 17.4569 39.8384 17.395C40.0796 17.327 40.2682 17.262 40.4043 17.2002C40.6208 17.1012 40.763 17.1724 40.8311 17.4136L41.1094 18.4712C41.165 18.6815 41.0846 18.8361 40.8682 18.9351C40.6641 19.0278 40.3826 19.1113 40.0239 19.1855C39.6714 19.266 39.3158 19.3062 38.957 19.3062C38.0726 19.3062 37.318 19.1237 36.6934 18.7588C36.0687 18.3939 35.7563 17.6424 35.7563 16.5044V11.1143H35.1255ZM42.334 14.1294C42.334 12.5646 42.7236 11.3307 43.5029 10.4277C44.2884 9.52474 45.3955 9.07324 46.8242 9.07324C48.4818 9.07324 49.7126 9.5 50.5166 10.3535C51.3206 11.207 51.7227 12.5801 51.7227 14.4727C51.7227 14.8438 51.5495 15.0293 51.2031 15.0293H45.0801C45.179 16.056 45.4326 16.7023 45.8408 16.9683C46.249 17.2342 46.7222 17.3672 47.2603 17.3672C47.7736 17.3672 48.1663 17.2992 48.4385 17.1631C48.7106 17.027 48.9395 16.8415 49.125 16.6064C49.3353 16.3343 49.5951 16.291 49.9043 16.4766L50.832 17.0425C51.1969 17.2651 51.2495 17.5311 50.9897 17.8403C50.6125 18.2918 50.1702 18.6289 49.6631 18.8516C49.1559 19.0742 48.355 19.1855 47.2603 19.1855C45.4852 19.1855 44.2204 18.734 43.4658 17.8311C42.7113 16.9281 42.334 15.6942 42.334 14.1294ZM45.0894 13.1738H49.125C49.125 12.5059 48.958 11.9616 48.624 11.541C48.29 11.1143 47.7581 10.9009 47.0283 10.9009C46.4469 10.9009 45.9862 11.105 45.646 11.5132C45.3058 11.9152 45.1203 12.4688 45.0894 13.1738ZM53.5503 18.3506C53.2472 18.1341 53.1637 17.9022 53.2998 17.6548L53.7729 16.792C53.9399 16.4827 54.1997 16.4456 54.5522 16.6807C54.9048 16.9157 55.3192 17.0889 55.7954 17.2002C56.2778 17.3115 56.717 17.3672 57.1128 17.3672C57.3911 17.3672 57.6509 17.3394 57.8921 17.2837C58.1333 17.228 58.3374 17.1198 58.5044 16.959C58.6714 16.7982 58.7549 16.5632 58.7549 16.2539C58.7549 16.0684 58.7054 15.9106 58.6064 15.7808C58.5075 15.6509 58.3807 15.5519 58.2261 15.4839C58.0715 15.4159 57.9076 15.3602 57.7344 15.3169C57.5055 15.2612 57.1746 15.1685 56.7417 15.0386C56.3149 14.9087 55.9036 14.7572 55.5078 14.584C55.18 14.4417 54.8584 14.2438 54.543 13.9902C54.2337 13.7305 54.0049 13.4429 53.8564 13.1274C53.7142 12.812 53.6431 12.4224 53.6431 11.9585C53.6431 11.3338 53.8224 10.7865 54.1812 10.3164C54.5461 9.84635 55.0161 9.52165 55.5913 9.34229C56.1665 9.16292 56.884 9.07324 57.7437 9.07324C58.325 9.07324 58.891 9.15674 59.4414 9.32373C59.9919 9.49072 60.3846 9.64844 60.6196 9.79688C60.9907 10.0319 61.0835 10.2824 60.8979 10.5483L60.332 11.374C60.1589 11.6214 59.8805 11.64 59.4971 11.4297C59.2064 11.2689 58.9188 11.139 58.6343 11.04C58.356 10.9411 58.0436 10.8916 57.6973 10.8916C57.4622 10.8916 57.2365 10.9163 57.02 10.9658C56.8035 11.0153 56.618 11.1081 56.4634 11.2441C56.3149 11.3802 56.2407 11.5596 56.2407 11.7822C56.2407 12.0173 56.3088 12.2028 56.4448 12.3389C56.5871 12.4688 56.7479 12.5646 56.9272 12.6265C57.1128 12.6883 57.2891 12.7471 57.4561 12.8027C57.8024 12.9141 58.1519 13.0223 58.5044 13.1274C58.8569 13.2264 59.2157 13.347 59.5806 13.4893C59.896 13.613 60.2021 13.7892 60.499 14.0181C60.7959 14.2469 61.0124 14.5376 61.1484 14.8901C61.2845 15.2427 61.3525 15.6447 61.3525 16.0962C61.3525 16.6961 61.1732 17.2528 60.8145 17.7661C60.4557 18.2795 59.9826 18.6444 59.395 18.8608C58.8075 19.0773 58.124 19.1855 57.3447 19.1855C56.4727 19.1855 55.7305 19.1237 55.1182 19C54.5059 18.8763 53.9832 18.6598 53.5503 18.3506Z" fill="#334155"/>
<path d="M6.13379 21C5.70085 21 5.48438 20.7681 5.48438 20.3042V8.39209C5.48438 7.92822 5.70085 7.69629 6.13379 7.69629H7.50684C8.03874 7.69629 8.44076 7.91276 8.71289 8.3457L13.4443 15.9438H13.5093C13.4784 15.5728 13.4629 15.2017 13.4629 14.8306V8.39209C13.4629 7.92822 13.6794 7.69629 14.1123 7.69629H15.5225C15.9554 7.69629 16.1719 7.92822 16.1719 8.39209V20.3042C16.1719 20.7681 15.9554 21 15.5225 21H14.2422C13.7103 21 13.3083 20.7835 13.0361 20.3506L8.21191 12.6133H8.14697C8.1779 12.9844 8.19336 13.3555 8.19336 13.7266V20.3042C8.19336 20.7681 7.97689 21 7.54395 21H6.13379Z" fill="#334155"/>
</svg>
